<svg width="28" height="30" viewBox="0 0 28 30" fill="none" xmlns="http://www.w3.org/2000/svg">
<path d="M18.75 9.23077H16.6667V11.5385H18.75V9.23077Z" fill="#5E6A7D"/>
<path d="M18.75 18.4615H16.6667V20.7692H18.75V18.4615Z" fill="#5E6A7D"/>
<path d="M16.6667 11.5385H14.5833V13.8462H16.6667V11.5385Z" fill="#5E6A7D"/>
<path d="M16.6667 16.1538H14.5833V18.4615H16.6667V16.1538Z" fill="#5E6A7D"/>
<path d="M10.4167 9.23077H8.33333V11.5385H10.4167V9.23077Z" fill="#5E6A7D"/>
<path d="M10.4167 18.4615H8.33333V20.7692H10.4167V18.4615Z" fill="#5E6A7D"/>
<path d="M8.33333 6.92308H6.25V9.23077H8.33333V6.92308Z" fill="#5E6A7D"/>
<path d="M20.8333 6.92308H18.75V9.23077H20.8333V6.92308Z" fill="#5E6A7D"/>
<path d="M12.5 16.1538H10.4167V18.4615H12.5V16.1538Z" fill="#5E6A7D"/>
<path d="M12.5 11.5385H10.4167V13.8462H12.5V11.5385Z" fill="#5E6A7D"/>
<path d="M14.5833 13.8462H12.5V16.1538H14.5833V13.8462Z" fill="#5E6A7D"/>
<path d="M8.33333 20.7692H6.25V23.0769H8.33333V20.7692Z" fill="#5E6A7D"/>
<path d="M20.8333 20.7692H18.75V23.0769H20.8333V20.7692Z" fill="#5E6A7D"/>
<path d="M25 2.30769V1.00872e-07H2.08333V2.30769L25 2.30769Z" fill="#5E6A7D"/>
<path d="M0 27.6923H2.08333V2.30769H0V27.6923Z" fill="#5E6A7D"/>
<path d="M25 30V27.6923H2.08333V30H25Z" fill="#5E6A7D"/>
<path d="M27.0833 2.30769L25 2.30769V27.6923H27.0833V2.30769Z" fill="#5E6A7D"/>
</svg>
