<svg width="119" height="90" viewBox="0 0 119 90" fill="none" xmlns="http://www.w3.org/2000/svg">
<path d="M100.591 7.53736C92.7895 3.96545 84.5531 1.43142 76.0927 0C74.935 2.06963 73.8874 4.199 72.9545 6.3792C63.9424 5.02119 54.7778 5.02119 45.7658 6.3792C44.8323 4.19922 43.7848 2.06988 42.6276 0C34.1617 1.44351 25.9199 3.98356 18.1101 7.55604C2.60576 30.495 -1.59723 52.8643 0.504269 74.9159C9.58401 81.6245 19.7468 86.7264 30.551 90C32.9837 86.728 35.1364 83.2568 36.9862 79.6233C33.4728 78.3111 30.0818 76.6921 26.8523 74.7852C27.7023 74.1687 28.5335 73.5336 29.3368 72.9172C38.7337 77.3363 48.99 79.6276 59.3741 79.6276C69.7583 79.6276 80.0146 77.3363 89.4115 72.9172C90.2241 73.5803 91.0553 74.2154 91.8959 74.7852C88.6602 76.6952 85.263 78.3173 81.7434 79.6326C83.5909 83.2645 85.7437 86.7328 88.1786 90C98.992 86.7395 109.163 81.64 118.244 74.9253C120.71 49.3524 114.032 27.1887 100.591 7.53736ZM39.6481 61.3543C33.7919 61.3543 28.9538 56.0399 28.9538 49.5019C28.9538 42.9639 33.6238 37.6027 39.6294 37.6027C45.635 37.6027 50.4358 42.9639 50.333 49.5019C50.2303 56.0399 45.6163 61.3543 39.6481 61.3543ZM79.1002 61.3543C73.2347 61.3543 68.4152 56.0399 68.4152 49.5019C68.4152 42.9639 73.0852 37.6027 79.1002 37.6027C85.1151 37.6027 89.8785 42.9639 89.7757 49.5019C89.673 56.0399 85.0684 61.3543 79.1002 61.3543Z" fill="white"/>
</svg>
