<svg width="51" height="34" viewBox="0 0 51 34" fill="none" xmlns="http://www.w3.org/2000/svg">
<path d="M34.2565 2.79688V5.58706H17.5154V2.79688H6.35464V5.58706H3.56445V27.9086H6.35464V30.6987H14.7252V25.1184H17.5154V22.3282H20.3056V19.538H31.4663V22.3282H34.2565V25.1184H37.0467V30.6987H45.4173V27.9086H48.2074V5.58706H45.4173V2.79688H34.2565Z" fill="white"/>
<path d="M17.5165 22.3215H20.3067V25.1117H17.5165V22.3215Z" fill="black"/>
<path d="M31.4675 22.3215H34.2576V25.1117H31.4675V22.3215Z" fill="black"/>
<path d="M6.35576 11.1607H9.14595V13.9509H6.35576V11.1607Z" fill="black"/>
<path d="M17.5165 22.3215H20.3067V25.1117H17.5165V22.3215Z" fill="black"/>
<path d="M3.56558 2.79019H6.35576V5.58037H3.56558V2.79019Z" fill="black"/>
<path d="M45.4184 2.79019H48.2086V5.58037H45.4184V2.79019Z" fill="black"/>
<path d="M31.4675 22.3215H34.2576V25.1117H31.4675V22.3215Z" fill="black"/>
<path d="M39.838 13.9509H42.6282V16.7411H39.838V13.9509Z" fill="black"/>
<path d="M42.6282 11.1607H45.4184V13.9509H42.6282V11.1607Z" fill="black"/>
<path d="M45.4184 27.9019H48.2086V30.6921H45.4184V27.9019Z" fill="black"/>
<path d="M3.56558 27.9019H6.35576V30.6921H3.56558V27.9019Z" fill="black"/>
<path d="M9.14595 8.37056H11.9361V11.1607H9.14595V8.37056Z" fill="black"/>
<path d="M11.9361 11.1607H14.7263V13.9509H11.9361V11.1607Z" fill="black"/>
<path d="M9.14595 13.9509H11.9361V16.7411H9.14595V13.9509Z" fill="black"/>
<path d="M37.0478 11.1608H39.838L39.838 13.9509L37.0478 13.951V11.1608Z" fill="black"/>
<path d="M39.838 8.37056H42.6282L42.6282 11.1607L39.838 11.1608L39.838 8.37056Z" fill="black"/>
<path d="M20.3067 19.5313V22.3215H31.4675L31.4674 19.5313H20.3067Z" fill="black"/>
<path d="M14.7263 30.692L17.5165 30.6921L17.5165 25.1117L14.7263 25.1117L14.7263 30.692Z" fill="black"/>
<path d="M14.7263 33.4822V30.692L6.35576 30.6921V33.4822L14.7263 33.4822Z" fill="black"/>
<path d="M3.56558 5.58037H0.775391V27.9019H3.56558V5.58037Z" fill="black"/>
<path d="M6.35576 0V2.79019H17.5165V0H6.35576Z" fill="black"/>
<path d="M34.2576 5.58037V2.79019H17.5165V5.58037H34.2576Z" fill="black"/>
<path d="M45.4184 2.79019V0H34.2576V2.79019H45.4184Z" fill="black"/>
<path d="M50.9988 5.58037H48.2086V27.9019H50.9988V5.58037Z" fill="black"/>
<path d="M37.0478 30.6921L37.0478 33.4822L45.4184 33.4822V30.6921L37.0478 30.6921Z" fill="black"/>
<path d="M34.2576 30.6921H37.0478V25.1117L34.2576 25.1117L34.2576 30.6921Z" fill="black"/>
</svg>
