<svg width="31" height="26" viewBox="0 0 31 26" fill="none" xmlns="http://www.w3.org/2000/svg">
<path d="M4.01368 6.68817V3.34397H8.02736V1.67188H22.0752V3.34397H26.0889V6.68817H28.0958V18.3929H26.0889V21.7371H22.0752V23.4092H8.02736V21.7371H4.01368V18.3929H2.00684V6.68817H4.01368Z" fill="white"/>
<path d="M8.02736 0V1.6721H12.041V3.3442H14.0479V1.6721H16.0547V3.3442H18.0616V1.6721H22.0752V0H8.02736Z" fill="black"/>
<path d="M6.02052 1.6721H4.01368V3.3442H8.02736V1.6721H6.02052Z" fill="black"/>
<path d="M2.00684 6.6884H4.01368V3.3442H2.00684V5.0163V6.6884Z" fill="black"/>
<path d="M8.02736 18.3931H10.0342V13.3768H20.0684V18.3931H22.0752V13.3768H28.0958V18.3931H30.1026V6.6884H28.0958V11.7047H22.0752V6.6884H20.0684V11.7047H10.0342V6.6884H8.02736V11.7047H2.00684V6.6884H0V18.3931H2.00684L2.00684 13.3768H8.02736V18.3931Z" fill="black"/>
<path d="M10.0342 6.6884H12.041V3.3442H10.0342V6.6884Z" fill="black"/>
<path d="M18.0616 6.6884H20.0684V3.3442H18.0616V6.6884Z" fill="black"/>
<path d="M26.0889 3.3442V1.6721H22.0752V3.3442H26.0889Z" fill="black"/>
<path d="M26.0889 6.6884H28.0958V3.3442H26.0889V6.6884Z" fill="black"/>
<path d="M28.0958 18.3931H26.0889V21.7373H28.0958V18.3931Z" fill="black"/>
<path d="M26.0889 23.4094V21.7373H22.0752V23.4094H26.0889Z" fill="black"/>
<path d="M20.0684 18.3931H18.0616V21.7373H20.0684V18.3931Z" fill="black"/>
<path d="M8.02736 23.4094V25.0815H22.0752V23.4094H18.0616V21.7373H16.0547V23.4094H14.0479V21.7373H12.041V23.4094H8.02736Z" fill="black"/>
<path d="M12.041 18.3931H10.0342V21.7373H12.041V18.3931Z" fill="black"/>
<path d="M4.01368 21.7373V23.4094H8.02736V21.7373H4.01368Z" fill="black"/>
<path d="M4.01368 18.3931H2.00684V21.7373H4.01368V18.3931Z" fill="black"/>
</svg>
