<svg width="23" height="30" viewBox="0 0 23 30" fill="none" xmlns="http://www.w3.org/2000/svg">
<path d="M3.08204 29.4703C2.21404 29.4703 1.55604 29.2463 1.10804 28.7983C0.660035 28.3783 0.436035 27.8183 0.436035 27.1183C0.436035 26.3623 0.646035 25.6623 1.06604 25.0183C1.51404 24.3463 2.08804 23.8143 2.78804 23.4223C3.48804 23.0303 4.21604 22.8343 4.97204 22.8343C5.30804 22.8343 5.64404 22.8763 5.98004 22.9603C6.34404 23.0163 6.69404 23.1143 7.03004 23.2543V4.35427L22.738 0.322266V21.7003C22.738 22.9043 22.472 23.9683 21.94 24.8923C21.436 25.7883 20.764 26.5023 19.924 27.0343C19.112 27.5383 18.216 27.7903 17.236 27.7903C16.368 27.7903 15.71 27.5803 15.262 27.1603C14.814 26.7123 14.59 26.1383 14.59 25.4383C14.59 24.6823 14.8 23.9823 15.22 23.3383C15.668 22.6663 16.242 22.1343 16.942 21.7423C17.642 21.3503 18.37 21.1543 19.126 21.1543C19.462 21.1543 19.798 21.1963 20.134 21.2803C20.498 21.3363 20.848 21.4343 21.184 21.5743V2.75827L21.898 3.34627L7.95404 7.21027L8.58403 6.20226V23.3803C8.58403 24.5843 8.31804 25.6483 7.78604 26.5723C7.28204 27.4683 6.61004 28.1683 5.77004 28.6723C4.95804 29.2043 4.06204 29.4703 3.08204 29.4703Z" fill="white"/>
</svg>
