<svg width="28" height="26" viewBox="0 0 28 26" fill="none" xmlns="http://www.w3.org/2000/svg">
<path d="M10.4481 2.81597C9.70408 2.59997 9.04408 2.51597 8.46808 2.56397C7.91608 2.61197 7.49608 2.77997 7.20808 3.06797C6.92008 3.33197 6.66808 3.66797 6.45208 4.07597C6.26008 4.45997 6.15208 4.89197 6.12808 5.37197C6.10408 5.82797 6.06808 6.27197 6.02008 6.70397C5.99608 7.13597 6.00808 7.53197 6.05608 7.89197C6.10408 8.25197 6.10408 8.51597 6.05608 8.68397H10.4841L10.5201 11.024H6.05608V25.784L3.35608 25.82V11.024H0.116078L0.0800781 8.68397H1.77208C2.46808 8.68397 2.88808 8.59997 3.03208 8.43197C3.20008 8.26397 3.28408 7.83197 3.28408 7.13597C3.28408 5.31197 3.51208 3.93197 3.96808 2.99597C4.68808 1.74797 5.69608 0.919967 6.99208 0.511968C8.31208 0.0799678 9.78808 0.115967 11.4201 0.619967L10.4481 2.81597Z" fill="white"/>
<path d="M15.8191 25.82H12.5071L18.4111 17.252L12.5071 8.75597H15.8551L20.1391 15.2L24.2791 8.75597L27.6271 8.79197L21.7231 17.144L27.8071 25.82H24.4591L20.0311 18.98L15.8191 25.82Z" fill="white"/>
</svg>
