<svg width="51" height="47" viewBox="0 0 51 47" fill="none" xmlns="http://www.w3.org/2000/svg">
<path d="M35.8743 32.285V43.0471H32.287V39.4598H21.5248H17.9374V28.6976H10.7627V25.1102H3.58789V21.5229H10.7627V17.9355H17.9374V14.3481H25.1122V10.7607H32.287V7.17332H39.4617V3.58594H46.6365V10.7607H43.0491V21.5229H39.4617V32.285H35.8743Z" fill="white"/>
<path d="M0 21.5243H3.58738V25.1117H0V21.5243Z" fill="black"/>
<path d="M32.2864 43.0486H35.8738V46.636H32.2864V43.0486Z" fill="black"/>
<path d="M28.6991 39.4612H32.2864V43.0486H28.6991V39.4612Z" fill="black"/>
<path d="M21.5243 25.1117H25.1117V28.6991H21.5243V25.1117Z" fill="black"/>
<path d="M25.1117 21.5243H28.6991V25.1117H25.1117V21.5243Z" fill="black"/>
<path d="M28.6991 17.9369H32.2864V21.5243H28.6991V17.9369Z" fill="black"/>
<path d="M32.2864 14.3495H35.8738V17.9369H32.2864V14.3495Z" fill="black"/>
<path d="M35.8738 10.7622H39.4612V14.3495H35.8738V10.7622Z" fill="black"/>
<path d="M39.4612 7.17477H43.0486V10.7622H39.4612V7.17477Z" fill="black"/>
<path d="M3.58738 17.9369V21.5243H10.7621V17.9369H3.58738Z" fill="black"/>
<path d="M10.7621 28.6991V25.1117H3.58738V28.6991H10.7621Z" fill="black"/>
<path d="M21.5243 39.4612H17.9369V32.2865H21.5243V28.6991H10.7621V32.2865H14.3495V46.636H17.9369V43.0486H21.5243V39.4612Z" fill="black"/>
<path d="M28.6991 35.8738H25.1117V32.2865H21.5243V39.4612H28.6991V35.8738Z" fill="black"/>
<path d="M39.4612 32.2865H35.8738V43.0486H39.4612V32.2865Z" fill="black"/>
<path d="M43.0486 21.5243H39.4612V32.2865H43.0486V21.5243Z" fill="black"/>
<path d="M10.7621 14.3495V17.9369H17.9369V14.3495H10.7621Z" fill="black"/>
<path d="M17.9369 10.7622V14.3495H25.1117V10.7622H17.9369Z" fill="black"/>
<path d="M25.1117 7.17477V10.7622H32.2864V7.17477H25.1117Z" fill="black"/>
<path d="M39.4612 7.17477V3.58738H32.2864V7.17477H39.4612Z" fill="black"/>
<path d="M39.4612 0V3.58738H46.636V0H39.4612Z" fill="black"/>
<path d="M50.2234 3.58738H46.636V10.7622H50.2234V3.58738Z" fill="black"/>
<path d="M46.636 10.7622H43.0486V21.5243H46.636V10.7622Z" fill="black"/>
</svg>
