<svg width="51" height="38" viewBox="0 0 51 38" fill="none" xmlns="http://www.w3.org/2000/svg">
<path d="M28.6371 34.538H12.9423V31.3991H16.0812V28.2601H19.2202V25.1212H16.0812V21.9822H12.9423V15.7043H9.80331V12.5653H6.66435V9.42636H3.52539V6.2874H9.80331V9.42636H19.2202V12.5653H25.4981V9.42636H28.6371V6.2874H31.776V3.14844H41.1929V6.2874H47.4708V9.42636H44.3319V15.7043H41.1929V25.1212H38.054V28.2601H34.915V31.3991H28.6371V34.538Z" fill="white"/>
<path d="M25.4984 6.28573H28.6374V9.42469H25.4984V6.28573Z" fill="black"/>
<path d="M28.6374 3.14677H31.7763V6.28573H28.6374V3.14677Z" fill="black"/>
<path d="M47.4711 6.28573H50.6101V9.42469H47.4711V6.28573Z" fill="black"/>
<path d="M38.0542 25.1195H41.1932V28.2585H38.0542V25.1195Z" fill="black"/>
<path d="M34.9153 28.2585H38.0542V31.3974H34.9153V28.2585Z" fill="black"/>
<path d="M9.8036 31.3974H12.9426V34.5364H9.8036V31.3974Z" fill="black"/>
<path d="M12.9426 28.2585H16.0815V31.3974H12.9426V28.2585Z" fill="black"/>
<path d="M16.0815 25.1195H19.2205V28.2585H16.0815V25.1195Z" fill="black"/>
<path d="M12.9426 21.9805H16.0815V25.1195H12.9426V21.9805Z" fill="black"/>
<path d="M6.66464 12.5637H9.8036V15.7026H6.66464V12.5637Z" fill="black"/>
<path d="M3.52568 9.42469H6.66464V12.5637H3.52568V9.42469Z" fill="black"/>
<path d="M0.386719 6.28573H3.52568V9.42469H0.386719V6.28573Z" fill="black"/>
<path d="M28.6374 37.6753V34.5364H12.9426V37.6753H28.6374Z" fill="black"/>
<path d="M34.9153 34.5364V31.3974H28.6374V34.5364H34.9153Z" fill="black"/>
<path d="M44.3322 15.7026H41.1932V25.1195H44.3322V15.7026Z" fill="black"/>
<path d="M47.4711 9.42469H44.3322V15.7026H47.4711V9.42469Z" fill="black"/>
<path d="M41.1932 3.14677V6.28573H47.4711V3.14677H41.1932Z" fill="black"/>
<path d="M31.7763 0.0078125V3.14677H41.1932V0.0078125H31.7763Z" fill="black"/>
<path d="M19.2205 9.42469V12.5637H25.4984V9.42469H19.2205Z" fill="black"/>
<path d="M9.8036 6.28573V9.42469H19.2205V6.28573H9.8036Z" fill="black"/>
<path d="M3.52568 3.14677V6.28573H9.8036V3.14677H3.52568Z" fill="black"/>
<path d="M9.8036 21.9805H12.9426V15.7026H9.8036V21.9805Z" fill="black"/>
</svg>
