<svg width="90" height="77" viewBox="0 0 90 77" fill="none" xmlns="http://www.w3.org/2000/svg">
<path d="M6.18213 57.6436V19.4005H18.1025V13.0267H30.0229V6.65283H41.9433V70.3913H30.0229V64.0175H18.1025V57.6436H6.18213Z" fill="white"/>
<path d="M59.8246 25.7688H65.7848V19.395H59.8246V25.7688Z" fill="white"/>
<path d="M65.7848 32.1427H71.745V25.7688H65.7848V32.1427Z" fill="white"/>
<path d="M77.7052 44.8904H83.6654V38.5165H77.7052V44.8904Z" fill="white"/>
<path d="M83.6654 51.2642H89.6256V44.8904H83.6654V51.2642Z" fill="white"/>
<path d="M59.8246 51.2642H65.7848V44.8904H59.8246V51.2642Z" fill="white"/>
<path d="M65.7848 44.8904H71.745V38.5165H65.7848V44.8904Z" fill="white"/>
<path d="M71.745 38.5165H77.7052V32.1427H71.745V38.5165Z" fill="white"/>
<path d="M77.7052 32.1427H83.6654V25.7688H77.7052V32.1427Z" fill="white"/>
<path d="M83.6654 25.7688H89.6256V19.395H83.6654V25.7688Z" fill="white"/>
<path d="M30.0236 13.0211V6.64729H18.1032V13.0211H30.0236Z" fill="white"/>
<path d="M18.1032 19.395V13.0211H6.18285V19.395H18.1032Z" fill="white"/>
<path d="M6.18285 19.395H0.222656V57.6381H6.18285V19.395Z" fill="white"/>
<path d="M6.18285 57.6381V64.0119H18.1032V57.6381H6.18285Z" fill="white"/>
<path d="M18.1032 64.0119V70.3858H30.0236V64.0119H18.1032Z" fill="white"/>
<path d="M30.0236 70.3858V76.7596H41.944V70.3858H30.0236Z" fill="white"/>
<path d="M41.944 70.3858H47.9042V6.64729H41.944V70.3858Z" fill="white"/>
<path d="M41.944 6.64729V0.273438H30.0236V6.64729H41.944Z" fill="white"/>
</svg>
