<svg width="40" height="26" viewBox="0 0 40 26" fill="none" xmlns="http://www.w3.org/2000/svg">
<path d="M25.25 6.75H27.3333V4.66667H25.25V6.75Z" fill="white"/>
<path d="M27.3333 8.83333H29.4167V6.75H27.3333V8.83333Z" fill="white"/>
<path d="M27.3333 19.25H29.4167V17.1667H27.3333V19.25Z" fill="white"/>
<path d="M25.25 21.3333H27.3333V19.25H25.25V21.3333Z" fill="white"/>
<path d="M21.0833 10.9167H23.1667V8.83333H21.0833V10.9167Z" fill="white"/>
<path d="M21.0833 17.1667H23.1667V15.0833H21.0833V17.1667Z" fill="white"/>
<path d="M31.5 8.83333H29.4167V17.1667H31.5V8.83333Z" fill="white"/>
<path d="M25.25 10.9167H23.1667V15.0833H25.25V10.9167Z" fill="white"/>
<path d="M10.6667 23.4167V25.5H14.8333V23.4167H10.6667Z" fill="white"/>
<path d="M6.5 21.3333V23.4167H10.6667V21.3333H6.5Z" fill="white"/>
<path d="M2.33333 19.25V21.3333H6.5V19.25H2.33333Z" fill="white"/>
<path d="M2.33333 6.75H0.25V19.25H2.33333V6.75Z" fill="white"/>
<path d="M6.5 6.75V4.66667H2.33333V6.75H6.5Z" fill="white"/>
<path d="M10.6667 4.66667V2.58333H6.5V4.66667H10.6667Z" fill="white"/>
<path d="M14.8333 2.58333V0.5H10.6667V2.58333H14.8333Z" fill="white"/>
<path d="M14.8333 23.4167H16.9167V2.58333H14.8333V23.4167Z" fill="white"/>
<path d="M6.50016 6.75016H2.3335V19.2502H6.50016V21.3335H10.6668V23.4168H14.8335V2.5835H10.6668V4.66683H6.50016V6.75016Z" fill="white"/>
<path d="M32.8887 4.66683H34.972V2.5835H32.8887V4.66683Z" fill="white"/>
<path d="M32.8887 23.4168H34.972V21.3335H32.8887V23.4168Z" fill="white"/>
<path d="M34.972 21.3335H37.0553V17.1668H34.972V21.3335Z" fill="white"/>
<path d="M39.1387 8.8335H37.0553V17.1668H39.1387V8.8335Z" fill="white"/>
<path d="M37.0553 4.66683H34.972V8.8335H37.0553V4.66683Z" fill="white"/>
</svg>
